<svg xmlns="http://www.w3.org/2000/svg" width="130.406" height="32.358" viewBox="0 0 130.406 32.358">
  <g id="Grupo_8" data-name="Grupo 8" transform="translate(-315.63 -2498.812)">
    <path id="Trazado_3" data-name="Trazado 3" d="M315.63,2513.3v-5.26c5.078-1.166,8.691-4.122,10.364-9.225h3.055c.071,2.985-.011,5.97.05,9.087h4.209a14.455,14.455,0,0,1,.13,5.242l-4.227.149a8.035,8.035,0,0,0-.128.954c-.01,2.077-.026,4.154,0,6.23.028,2.3,1.437,3.378,3.7,2.976a7.6,7.6,0,0,0,5.43-4.166,4.761,4.761,0,0,0,.459-2.133c.056-2.323.021-4.647.021-6.971v-1.529c1.544-.8,3.012-1.544,4.8-1.118a2.454,2.454,0,0,1,2.01,1.927,15.833,15.833,0,0,1,.45,3.057c.06,2.818.03,5.637.015,8.455a2.81,2.81,0,0,0,.728,2.162,4.032,4.032,0,0,0,5.382-3.917c.015-3.214,0-6.428,0-9.642v-1.535h7.33c.265,1.044.365,19.72.115,22.435-3,1.129-6.244,1.108-7.58-2.336-.122.043-.282.051-.364.136-2.333,2.4-5.264,3.026-8.431,2.664-2.018-.231-3.183-1.634-3.821-3.492-.156-.456-.271-.927-.461-1.585a18.169,18.169,0,0,0-1.456,1.211,13.677,13.677,0,0,1-8.243,3.951,8.246,8.246,0,0,1-3.924-.319,6.5,6.5,0,0,1-4.649-5.422,25.46,25.46,0,0,1-.27-3.534c-.038-2.761-.012-5.524-.012-8.452Z" fill="#4c9d34"/>
    <path id="Trazado_4" data-name="Trazado 4" d="M380.938,2500.085a5.752,5.752,0,0,1,4.693-1.125,2.355,2.355,0,0,1,1.93,2,36.193,36.193,0,0,1,.353,3.673c.059,1.333,0,2.67.02,4.006.006.468.078.935.139,1.616.547-.28.892-.426,1.205-.622a9.25,9.25,0,0,1,3.863-1.4,6.113,6.113,0,0,1,6.629,3.93,14.436,14.436,0,0,1-.851,13.891,10.171,10.171,0,0,1-7.647,4.821,19.444,19.444,0,0,1-10.334-1.339ZM388,2524.651c4.749.477,6.9-4.5,5.79-7.422a2.34,2.34,0,0,0-2.6-1.741c-1.369.042-2.216.932-3.187,1.7Z" fill="#4c9d34"/>
    <path id="Trazado_5" data-name="Trazado 5" d="M404.53,2508.765a5.919,5.919,0,0,1,3.76-1.307c1.935.039,2.8.547,3.249,2.751a19.489,19.489,0,0,1,.314,3.533c.045,2.472,0,4.946.017,7.419.012,2.048,1.186,2.856,3.107,2.147a4.2,4.2,0,0,0,2.942-4.157c-.1-3.112-.033-6.231-.027-9.347,0-.482.042-.965.069-1.546h7.124c.312,1.087.434,19.358.143,22.366a8.788,8.788,0,0,1-4.383.425c-1.722-.318-2.43-1.516-3.051-2.927-.246.118-.472.157-.587.291a8.241,8.241,0,0,1-5.479,2.587,7.52,7.52,0,0,1-2.78.035,5.309,5.309,0,0,1-4.384-4.914c-.035-.443-.033-.889-.033-1.334q0-7.271,0-14.541Z" fill="#4c9d34"/>
    <path id="Trazado_6" data-name="Trazado 6" d="M429.189,2523.533a11.1,11.1,0,0,0,4.75,1.709,8.045,8.045,0,0,0,2.039-.067c1.388-.253,1.621-.645,1.478-2.362-1.051-.513-2.217-1.033-3.333-1.643a16.778,16.778,0,0,1-3.251-2.007,6.318,6.318,0,0,1-1.136-7.938,7.456,7.456,0,0,1,4.8-3.363,12.27,12.27,0,0,1,7.144.052c1.349.441,2.671.963,4.154,1.5-.333.978-.574,1.817-.9,2.622a2.032,2.032,0,0,1-2.43,1.444c-.681-.08-1.344-.313-2.024-.422a6.861,6.861,0,0,0-1.756-.136c-1.363.14-1.676.636-1.443,2.283.593.313,1.282.674,1.969,1.04a19.963,19.963,0,0,1,4.947,3.173,6.372,6.372,0,0,1-2.426,10.52,11.725,11.725,0,0,1-5.615,1.076,18.287,18.287,0,0,1-6-1.44c-.661-.318-1.335-.611-2.144-.98Z" fill="#4c9d34"/>
    <path id="Trazado_7" data-name="Trazado 7" d="M363.065,2508.673a6.6,6.6,0,0,1,3.487-1.251c1.817-.146,3.3.821,3.767,3.357.114.629.2,1.265.309,1.9a2.57,2.57,0,0,0,.254.5c1.57-2.982,3.391-5.558,6.926-6.172a45.96,45.96,0,0,1,.167,8.984c-.635.128-1.311.22-1.96.405a6.879,6.879,0,0,0-5.216,4.931,6.383,6.383,0,0,0-.19,1.6c-.021,2.125-.009,4.25-.009,6.376v1.539h-7.535Z" fill="#4c9d34"/>
  </g>
</svg>
