<svg xmlns="http://www.w3.org/2000/svg" width="130.406" height="32.358" viewBox="0 0 130.406 32.358">
  <g id="Grupo_9" data-name="Grupo 9" transform="translate(-315.63 -173.829)">
    <path id="Trazado_8" data-name="Trazado 8" d="M315.63,188.321v-5.259c5.078-1.166,8.691-4.123,10.364-9.226h3.055c.071,2.986-.011,5.971.05,9.088h4.209a14.456,14.456,0,0,1,.13,5.242l-4.227.148a8.08,8.08,0,0,0-.128.955c-.01,2.076-.026,4.154,0,6.23.028,2.3,1.437,3.378,3.7,2.975a7.6,7.6,0,0,0,5.43-4.165,4.764,4.764,0,0,0,.459-2.133c.056-2.323.021-4.648.021-6.972v-1.528c1.544-.8,3.012-1.544,4.8-1.118a2.452,2.452,0,0,1,2.01,1.927,15.823,15.823,0,0,1,.45,3.057c.06,2.817.03,5.637.015,8.455a2.811,2.811,0,0,0,.728,2.162,4.033,4.033,0,0,0,5.382-3.917c.015-3.214,0-6.428,0-9.642v-1.536h7.33c.265,1.044.365,19.721.115,22.436-3,1.129-6.244,1.108-7.58-2.336-.122.043-.282.051-.364.135-2.333,2.4-5.264,3.027-8.431,2.665-2.018-.231-3.183-1.634-3.821-3.492-.156-.457-.271-.928-.461-1.585a18.194,18.194,0,0,0-1.456,1.211,13.683,13.683,0,0,1-8.243,3.951,8.248,8.248,0,0,1-3.924-.319,6.5,6.5,0,0,1-4.649-5.422,25.472,25.472,0,0,1-.27-3.534c-.038-2.762-.012-5.524-.012-8.453Z" fill="#fff"/>
    <path id="Trazado_9" data-name="Trazado 9" d="M380.938,175.1a5.752,5.752,0,0,1,4.693-1.125,2.355,2.355,0,0,1,1.93,2,36.174,36.174,0,0,1,.353,3.673c.059,1.333,0,2.67.02,4,.006.469.078.936.139,1.617.547-.28.892-.426,1.205-.622a9.237,9.237,0,0,1,3.863-1.4,6.111,6.111,0,0,1,6.629,3.93,14.436,14.436,0,0,1-.851,13.891,10.174,10.174,0,0,1-7.647,4.821,19.445,19.445,0,0,1-10.334-1.339ZM388,199.668c4.749.477,6.9-4.5,5.79-7.422a2.34,2.34,0,0,0-2.6-1.741c-1.369.041-2.216.932-3.187,1.7Z" fill="#fff"/>
    <path id="Trazado_10" data-name="Trazado 10" d="M404.53,183.782a5.918,5.918,0,0,1,3.76-1.307c1.935.039,2.8.547,3.249,2.751a19.489,19.489,0,0,1,.314,3.533c.045,2.472,0,4.946.017,7.419.012,2.048,1.186,2.856,3.107,2.146a4.2,4.2,0,0,0,2.942-4.156c-.1-3.112-.033-6.231-.027-9.347,0-.482.042-.965.069-1.546h7.124c.312,1.087.434,19.358.143,22.366a8.787,8.787,0,0,1-4.383.425c-1.722-.318-2.43-1.517-3.051-2.927-.246.118-.472.157-.587.291a8.241,8.241,0,0,1-5.479,2.587,7.524,7.524,0,0,1-2.78.035,5.309,5.309,0,0,1-4.384-4.914c-.035-.443-.033-.889-.033-1.334q0-7.271,0-14.541Z" fill="#fff"/>
    <path id="Trazado_11" data-name="Trazado 11" d="M429.189,198.55a11.086,11.086,0,0,0,4.75,1.708,7.991,7.991,0,0,0,2.039-.066c1.388-.253,1.621-.645,1.478-2.362-1.051-.514-2.217-1.033-3.333-1.643a16.781,16.781,0,0,1-3.251-2.007,6.318,6.318,0,0,1-1.136-7.938,7.457,7.457,0,0,1,4.8-3.363,12.272,12.272,0,0,1,7.144.052c1.349.441,2.671.963,4.154,1.5-.333.979-.574,1.818-.9,2.622a2.032,2.032,0,0,1-2.43,1.445c-.681-.08-1.344-.313-2.024-.422a6.865,6.865,0,0,0-1.756-.136c-1.363.14-1.676.635-1.443,2.283.593.312,1.282.674,1.969,1.04a19.963,19.963,0,0,1,4.947,3.173,6.372,6.372,0,0,1-2.426,10.52,11.714,11.714,0,0,1-5.615,1.075,18.264,18.264,0,0,1-6-1.439c-.661-.318-1.335-.611-2.144-.98Z" fill="#fff"/>
    <path id="Trazado_12" data-name="Trazado 12" d="M363.065,183.689a6.615,6.615,0,0,1,3.487-1.251c1.817-.145,3.3.822,3.767,3.357.114.63.2,1.266.309,1.9a2.571,2.571,0,0,0,.254.505c1.57-2.982,3.391-5.559,6.926-6.172a45.953,45.953,0,0,1,.167,8.983c-.635.129-1.311.221-1.96.406a6.879,6.879,0,0,0-5.216,4.931,6.381,6.381,0,0,0-.19,1.6c-.021,2.125-.009,4.25-.009,6.376v1.539h-7.535Z" fill="#fff"/>
  </g>
</svg>
