<svg xmlns="http://www.w3.org/2000/svg" width="12.429" height="21.954" viewBox="0 0 12.429 21.954">
  <path id="Trazado_14" data-name="Trazado 14" d="M328.19,2638.527h-9.235a1.6,1.6,0,0,0-1.6,1.6v18.757a1.6,1.6,0,0,0,1.6,1.6h9.235a1.6,1.6,0,0,0,1.6-1.6v-18.757a1.6,1.6,0,0,0-1.6-1.6Zm-6.894.973h4.558c.114,0,.207.172.207.383s-.093.386-.207.386H321.3c-.118,0-.211-.172-.211-.386s.093-.383.211-.383Zm2.277,19.4a1.019,1.019,0,1,1,1.019-1.018,1.019,1.019,0,0,1-1.019,1.018Zm5.02-3.495h-10.04v-14.179h10.04Zm0,0" transform="translate(-317.358 -2638.527)" fill="#fff"/>
</svg>
