<svg xmlns="http://www.w3.org/2000/svg" width="36.201" height="38.83" viewBox="0 0 36.201 38.83">
  <path id="Trazado_13" data-name="Trazado 13" d="M1192.692,196.632a6.493,6.493,0,0,0-.9,1.125l-11.373-6.9a6.54,6.54,0,0,0,0-4.864l11.377-6.851a6.6,6.6,0,1,0-.595-1.179l-11.393,6.861a6.583,6.583,0,1,0,0,7.2l11.39,6.914a6.575,6.575,0,1,0,1.491-2.3Zm4.654-26.28a5.264,5.264,0,1,1-5.264,5.264,5.271,5.271,0,0,1,5.264-5.264Zm-23.037,23.336a5.266,5.266,0,1,1,5.267-5.265,5.271,5.271,0,0,1-5.267,5.265Zm26.761,11.323a5.264,5.264,0,1,1,1.543-3.725,5.268,5.268,0,0,1-1.543,3.725Zm0,0" transform="translate(-1167.727 -169.034)" fill="#fff"/>
</svg>
