<svg xmlns="http://www.w3.org/2000/svg" width="15.902" height="12.498" viewBox="0 0 15.902 12.498">
  <g id="Grupo_10" data-name="Grupo 10" transform="translate(-316.622 -2672.52)">
    <path id="Trazado_15" data-name="Trazado 15" d="M318.148,2676.372q.3.213,1.819,1.265t2.325,1.62c.06.041.185.132.377.271s.352.251.48.337.281.182.461.289a2.736,2.736,0,0,0,.51.239,1.421,1.421,0,0,0,.444.08h.018a1.421,1.421,0,0,0,.444-.08,2.707,2.707,0,0,0,.51-.239q.27-.16.461-.289c.128-.086.287-.2.479-.337s.319-.23.378-.271q.816-.569,4.153-2.885a4.237,4.237,0,0,0,1.082-1.092,2.346,2.346,0,0,0,.435-1.34,1.432,1.432,0,0,0-1.42-1.42H318.042a1.267,1.267,0,0,0-1.052.461,1.8,1.8,0,0,0-.368,1.154,2.075,2.075,0,0,0,.488,1.212,4.4,4.4,0,0,0,1.038,1.025Zm0,0" fill="#fff"/>
    <path id="Trazado_16" data-name="Trazado 16" d="M331.636,2677.322q-2.91,1.971-4.419,3.062-.506.374-.82.582a5.133,5.133,0,0,1-.839.426,2.552,2.552,0,0,1-.976.217h-.018a2.552,2.552,0,0,1-.976-.217,5.134,5.134,0,0,1-.839-.426q-.315-.209-.82-.582-1.2-.877-4.411-3.062a4.74,4.74,0,0,1-.9-.772v7.048a1.424,1.424,0,0,0,1.42,1.42H331.1a1.424,1.424,0,0,0,1.42-1.42v-7.048a4.869,4.869,0,0,1-.888.772Zm0,0" fill="#fff"/>
  </g>
</svg>
